<svg width="32" height="32" viewBox="0 0 32 32" xmlns="http://www.w3.org/2000/svg">
  <g transform="scale(0.08) translate(0, 0)">
    <path d="M 184.26 197.33 C185.74,196.39 187.30,195.18 188.70,193.81 C193.84,188.76 193.15,186.70 187.65,189.32 C190.29,187.93 192.97,187.01 194.95,187.06 C197.35,187.11 197.39,187.19 195.55,188.31 C194.48,188.96 191.49,191.43 188.91,193.79 C187.38,195.18 185.77,196.39 184.26,197.33 ZM 106.40 380.61 C106.08,379.77 106.51,376.92 107.36,374.29 C107.64,373.42 107.96,372.29 108.28,371.05 C107.95,372.70 107.62,374.48 107.27,376.36 C106.93,378.19 107.24,379.54 108.12,380.10 C108.72,380.48 109.46,380.81 109.97,380.93 C108.50,382.40 107.14,382.54 106.40,380.61 ZM 175.91 346.00 C174.12,341.04 173.95,338.36 174.21,318.80 C174.43,302.71 174.83,296.76 175.79,295.81 C177.05,294.55 178.04,295.20 178.49,297.12 C178.01,296.02 177.71,296.15 176.25,297.60 C174.72,299.14 174.47,301.88 174.23,319.93 C173.99,338.28 174.17,341.09 175.92,346.00 C177.01,349.02 179.72,358.60 181.96,367.28 C179.72,358.60 177.00,349.02 175.91,346.00 ZM 193.00 228.29 C193.00,227.53 193.63,226.39 194.58,225.23 C194.23,225.89 194.18,226.48 194.47,226.96 C194.83,227.53 195.50,228.00 195.97,228.00 C196.41,228.00 198.89,227.41 202.01,226.61 C198.37,227.58 195.44,228.38 194.75,228.59 C193.79,228.89 193.00,228.75 193.00,228.29 ZM 182.51 346.44 C181.60,341.81 181.01,336.40 180.07,326.74 C179.23,318.12 178.67,309.75 178.59,305.42 C178.72,310.14 179.30,318.50 180.10,326.86 C181.03,336.46 181.61,341.83 182.51,346.44 ZM 203.74 220.38 C207.57,219.93 212.48,219.95 215.28,220.56 C212.33,220.09 207.50,219.99 203.74,220.38 ZM 120.03 353.03 C118.27,357.14 116.44,363.13 115.98,366.34 C115.64,368.66 115.06,370.93 114.34,372.99 C115.08,370.68 115.70,368.23 116.00,366.15 C116.45,363.04 118.27,357.14 120.03,353.03 ZM 110.40 361.18 C111.09,358.05 112.14,354.68 112.96,353.05 C114.13,350.73 115.24,347.10 116.01,343.44 C115.25,347.09 114.14,350.71 112.99,353.00 C112.22,354.51 111.37,357.21 110.40,361.18 ZM 215.56 222.87 C214.06,223.38 211.67,224.05 208.13,224.99 C211.04,224.20 213.80,223.41 215.56,222.87 ZM 198.77 221.62 C198.85,221.58 198.93,221.54 199.01,221.49 C199.02,221.49 199.03,221.48 199.05,221.48 C198.95,221.52 198.86,221.57 198.77,221.62 Z" fill="rgba(139,100,53,1)"/>
    <path d="M 137.83 425.77 C134.01,424.48 123.17,417.96 115.50,412.24 C97.89,399.10 82.70,381.43 74.03,364.00 C72.80,361.52 70.76,357.48 69.51,355.00 C66.36,348.79 62.59,337.14 59.93,325.39 C58.04,317.08 57.67,312.45 57.63,296.50 C57.58,275.92 58.21,271.22 63.17,255.50 C69.56,235.27 75.71,222.42 84.96,210.00 C90.30,202.81 106.91,185.95 113.95,180.55 C120.58,175.47 134.38,167.00 136.04,167.00 C136.30,167.00 137.01,166.76 138.02,166.34 C135.69,167.47 133.70,168.66 133.26,169.38 C132.84,170.06 129.57,172.24 126.00,174.22 C116.53,179.46 104.38,189.34 103.61,192.42 C103.25,193.84 102.32,195.00 101.55,195.00 C99.18,195.00 91.19,202.98 88.98,207.55 C87.84,209.91 85.91,212.49 84.70,213.29 C83.49,214.09 80.99,217.61 79.15,221.12 C77.31,224.63 74.78,228.94 73.54,230.70 C72.29,232.45 70.99,235.68 70.64,237.87 C70.29,240.07 69.30,242.56 68.45,243.41 C65.96,245.89 61.95,258.94 61.55,265.78 C61.36,269.23 60.62,272.75 59.92,273.59 C58.02,275.89 57.75,311.12 59.60,316.50 C60.35,318.70 60.98,321.94 60.99,323.69 C60.99,325.45 61.45,327.16 62.00,327.50 C62.55,327.84 63.00,329.86 63.00,332.00 C63.00,334.14 63.41,336.14 63.91,336.45 C64.42,336.76 65.15,338.92 65.54,341.26 C65.93,343.59 67.10,346.57 68.13,347.88 C69.16,349.20 70.00,351.36 70.00,352.68 C70.00,355.59 72.72,361.18 74.69,362.33 C75.47,362.79 76.53,364.14 77.05,365.33 C77.57,366.52 78.41,368.17 78.93,369.00 C79.44,369.83 80.68,372.64 81.68,375.26 C82.68,377.87 84.29,380.26 85.25,380.57 C86.21,380.88 87.00,381.63 87.00,382.23 C87.00,382.84 87.64,384.04 88.41,384.92 C91.99,388.92 96.00,392.78 99.83,395.89 C102.12,397.76 104.00,399.84 104.00,400.52 C104.00,402.26 112.77,409.26 113.99,408.50 C116.11,407.19 114.62,405.15 103.49,394.09 C97.17,387.81 92.00,382.13 92.00,381.46 C92.00,380.79 91.30,379.66 90.43,378.95 C89.57,378.23 88.23,376.41 87.45,374.89 C86.66,373.38 85.16,371.87 84.11,371.54 C82.91,371.16 81.58,369.00 80.51,365.72 C79.58,362.85 77.92,359.04 76.83,357.25 C75.73,355.46 75.01,353.48 75.22,352.84 C75.43,352.21 74.53,350.63 73.23,349.32 C71.64,347.73 70.95,346.03 71.14,344.19 C71.31,342.62 70.44,339.83 69.11,337.68 C67.36,334.85 66.95,333.10 67.42,330.58 C67.90,328.01 67.67,327.09 66.41,326.61 C65.13,326.11 64.93,325.21 65.46,322.33 C65.95,319.73 65.65,317.77 64.41,315.46 C62.85,312.56 62.76,310.67 63.58,297.11 C64.09,288.80 64.16,282.00 63.75,282.00 C62.66,282.00 62.83,279.55 64.14,276.32 C64.77,274.77 65.37,271.48 65.49,269.00 C65.75,263.29 67.64,256.22 69.76,253.00 C70.66,251.62 71.28,249.29 71.13,247.80 C70.95,245.96 71.52,244.69 72.93,243.81 C74.32,242.94 75.00,241.47 75.00,239.31 C75.00,237.41 76.20,234.32 77.93,231.76 C79.54,229.37 81.01,226.77 81.18,225.98 C81.36,225.19 82.06,223.94 82.75,223.20 C83.44,222.46 85.44,219.75 87.20,217.18 C88.95,214.60 90.75,212.35 91.19,212.17 C91.64,211.98 92.00,210.79 92.00,209.53 C92.00,207.85 92.74,207.03 94.72,206.53 C97.38,205.87 106.66,196.56 110.35,190.86 C111.36,189.29 112.73,188.00 113.38,188.00 C114.57,188.00 117.61,185.84 123.55,180.75 C125.32,179.24 127.11,178.00 127.54,178.00 C127.97,178.00 130.70,176.20 133.62,174.00 C137.51,171.06 139.87,170.00 142.50,170.00 C144.94,170.00 146.95,169.20 148.78,167.50 C151.13,165.32 153.59,164.46 156.25,164.88 C156.66,164.95 157.00,164.49 157.00,163.88 C157.00,163.17 158.08,162.97 159.91,163.33 C161.72,163.69 163.23,163.42 163.90,162.62 C165.43,160.78 174.14,159.10 183.50,158.83 C187.90,158.70 191.75,158.24 192.06,157.80 C193.11,156.29 224.14,156.84 228.50,158.44 C230.70,159.25 233.51,159.93 234.75,159.96 C235.99,159.98 237.00,160.36 237.00,160.80 C237.00,161.24 240.26,162.08 244.25,162.65 C251.52,163.71 256.06,165.02 261.33,167.61 C262.89,168.37 264.75,169.00 265.46,169.00 C266.17,169.00 267.32,169.68 268.01,170.51 C268.70,171.34 271.12,172.92 273.38,174.01 C275.65,175.10 279.12,177.24 281.11,178.75 C290.34,185.79 298.21,192.52 304.95,199.22 C294.31,188.81 281.66,179.85 267.30,172.66 C246.53,162.26 231.76,158.84 206.09,158.51 C189.19,158.30 186.61,158.51 174.59,161.08 C167.39,162.62 159.02,164.75 156.00,165.82 C116.98,179.62 85.71,210.78 72.07,249.45 C65.80,267.24 64.62,274.55 64.63,295.50 C64.65,312.56 64.92,315.66 67.32,325.87 C75.40,360.24 96.03,390.78 124.21,410.17 C123.78,410.23 122.72,409.97 121.83,409.58 C120.91,409.18 119.15,409.39 117.91,410.05 L 115.67 411.25 L 118.09 413.14 C119.41,414.18 121.49,414.87 122.70,414.67 C123.91,414.46 124.81,414.78 124.70,415.36 C124.59,415.95 125.95,417.17 127.71,418.07 C129.48,418.97 132.25,421.13 133.87,422.86 C135.09,424.17 136.66,425.30 137.83,425.77 ZM 206.38 426.77 C203.39,425.42 200.49,419.77 198.00,410.50 C196.83,406.12 193.65,398.15 190.95,392.80 C187.37,385.71 184.92,378.78 181.96,367.28 C179.72,358.60 177.01,349.02 175.92,346.00 C174.17,341.09 173.99,338.28 174.23,319.93 C174.26,317.20 174.30,314.82 174.34,312.75 C174.36,314.02 174.46,315.04 174.64,315.51 C175.30,317.23 175.39,317.23 175.96,315.62 C176.29,314.66 176.51,312.22 176.43,310.19 C176.36,308.16 176.64,306.27 177.06,305.99 C177.48,305.72 177.25,304.70 176.55,303.73 C175.43,302.20 175.17,302.74 174.60,307.82 C174.51,308.64 174.44,309.47 174.40,310.27 C174.63,300.76 175.05,298.81 176.25,297.60 C177.84,296.01 178.06,296.00 178.63,297.47 C178.97,298.36 178.99,300.70 178.67,302.67 C178.35,304.65 178.98,315.48 180.07,326.74 C181.90,345.60 182.41,348.27 186.53,360.53 C188.99,367.86 191.00,374.79 191.00,375.93 C191.00,377.08 193.65,383.08 196.88,389.27 C200.26,395.74 203.28,403.07 203.99,406.51 C204.66,409.81 206.10,415.08 207.18,418.23 C209.64,425.40 209.38,428.12 206.38,426.77 ZM 214.09 271.85 C214.60,271.29 215.78,269.00 216.95,266.30 C218.38,263.02 221.90,257.97 225.34,254.29 C228.61,250.80 231.08,247.75 230.83,247.50 C230.59,247.25 228.84,248.09 226.94,249.37 C221.10,253.29 210.54,256.20 208.72,254.39 C208.38,254.05 212.13,251.82 217.04,249.43 C229.13,243.54 240.61,235.65 242.56,231.89 C244.55,228.03 243.69,227.01 240.75,229.76 C237.71,232.61 233.72,234.00 228.61,234.00 C223.90,234.00 214.73,231.25 215.47,230.05 C215.73,229.63 220.05,228.98 225.07,228.60 C230.71,228.18 235.22,227.29 236.85,226.27 C240.32,224.13 245.00,219.84 245.00,218.81 C245.00,218.37 242.99,218.00 240.54,218.00 C238.09,218.00 232.35,217.14 227.79,216.08 C221.27,214.58 209.65,213.04 200.56,212.36 C203.46,212.16 205.26,211.78 205.82,211.25 C207.24,209.91 206.78,209.68 203.25,209.96 C201.83,210.08 201.00,209.59 201.00,208.63 C201.00,206.26 199.36,205.81 195.21,207.05 C192.53,207.86 190.30,207.90 187.74,207.19 C184.88,206.41 183.84,206.49 182.92,207.59 C182.28,208.37 180.52,209.00 179.00,209.00 C177.48,209.00 175.70,209.65 175.04,210.45 C174.38,211.25 172.40,212.37 170.63,212.96 C168.85,213.54 166.63,215.35 165.65,217.01 C164.59,218.82 163.06,220.00 161.79,220.00 C158.84,220.00 149.00,230.20 149.00,233.26 C149.00,234.58 147.88,236.71 146.50,238.00 C145.12,239.29 144.00,240.88 144.00,241.54 C144.00,242.19 143.09,243.89 141.97,245.31 C140.52,247.16 138.30,252.47 136.36,258.27 C139.22,249.50 143.09,240.01 146.10,234.95 C155.84,218.56 177.09,205.05 193.21,205.01 C195.81,205.01 200.25,205.92 203.09,207.04 C205.93,208.16 208.49,208.84 208.77,208.56 C209.06,208.28 208.55,207.76 207.64,207.42 C206.74,207.07 206.00,206.38 206.00,205.89 C206.00,204.49 210.20,204.86 213.42,206.54 C215.59,207.67 216.53,207.76 217.07,206.89 C218.01,205.36 222.49,206.50 226.37,209.27 C228.42,210.72 229.49,211.02 229.77,210.20 C230.63,207.60 238.14,210.08 245.20,215.30 C247.53,217.03 248.35,217.16 250.52,216.17 C251.94,215.53 254.20,215.00 255.55,215.00 C256.35,215.00 256.95,214.93 257.34,214.79 C257.23,214.87 257.12,214.93 257.00,214.99 C256.17,215.37 254.49,216.21 253.26,216.84 C252.03,217.48 250.46,218.01 249.76,218.03 C247.82,218.07 240.21,225.34 240.70,226.69 C240.94,227.35 241.66,227.69 242.31,227.45 C242.97,227.22 244.10,227.41 244.84,227.88 C245.95,228.59 245.91,229.28 244.57,231.87 C243.68,233.59 242.51,235.00 241.98,235.00 C241.45,235.00 239.81,236.35 238.34,238.00 C236.87,239.65 235.15,241.00 234.52,241.00 C233.89,241.00 232.08,242.35 230.50,244.00 C228.92,245.65 228.16,247.00 228.81,247.00 C229.47,247.00 230.00,246.46 230.00,245.80 C230.00,244.87 230.27,244.87 231.21,245.81 C232.86,247.46 230.11,252.13 224.00,258.02 C220.73,261.17 219.10,263.67 218.61,266.26 C218.05,269.27 216.36,271.30 214.09,271.85 ZM 185.50 441.37 C181.92,440.82 178.11,440.08 174.30,439.20 C180.16,439.95 185.47,438.40 182.79,436.30 C180.95,434.86 175.10,433.00 172.40,433.00 C171.13,433.00 169.67,432.23 169.15,431.30 C168.36,429.89 167.92,429.82 166.66,430.86 C165.40,431.91 164.78,431.78 163.07,430.07 C161.93,428.93 160.13,428.00 159.06,428.00 C157.99,428.00 156.84,427.55 156.50,427.00 C156.16,426.45 154.18,426.00 152.10,426.00 C149.58,426.00 147.70,425.33 146.50,424.00 C145.50,422.90 143.58,422.00 142.21,422.00 C139.78,422.00 133.15,418.56 131.82,416.61 C131.45,416.07 129.65,414.89 127.82,414.00 C126.00,413.10 124.61,411.84 124.75,411.19 C124.80,410.94 124.80,410.71 124.76,410.54 C124.84,410.59 124.92,410.65 125.00,410.70 C129.50,413.75 142.63,420.61 153.00,425.34 C157.71,427.48 178.15,433.05 186.00,434.32 C191.00,435.13 225.90,434.98 226.41,434.14 C226.71,433.67 228.96,433.00 231.42,432.67 C235.41,432.12 249.45,427.78 260.53,423.66 C264.93,422.03 276.96,415.10 286.48,408.73 C295.56,402.66 313.64,383.91 320.46,373.50 C323.70,368.55 327.10,363.38 328.01,362.00 C330.26,358.60 337.44,340.76 339.27,334.00 C340.09,330.98 341.29,325.58 341.94,322.00 C342.58,318.42 343.48,313.92 343.93,312.00 C344.04,311.53 344.14,311.03 344.24,310.52 C343.56,324.92 341.54,334.41 337.63,342.87 C337.02,344.18 336.48,345.75 336.42,346.37 C336.36,346.99 336.24,348.26 336.15,349.18 C336.07,350.10 335.42,351.45 334.71,352.18 C332.23,354.72 329.00,360.75 329.00,362.83 C329.00,363.99 328.11,365.41 327.01,365.99 C325.92,366.58 324.72,368.27 324.35,369.76 C323.97,371.25 322.39,373.82 320.84,375.48 C319.28,377.14 318.01,378.76 318.00,379.08 C318.00,379.40 315.77,382.09 313.04,385.06 C310.31,388.02 307.95,391.36 307.79,392.48 C307.63,393.59 306.98,394.50 306.35,394.50 C304.78,394.50 297.00,401.57 297.00,402.99 C297.00,403.61 296.62,403.88 296.15,403.59 C295.68,403.30 294.25,404.17 292.97,405.53 C291.70,406.89 290.24,408.00 289.73,408.00 C289.23,408.00 287.78,408.79 286.52,409.75 C285.26,410.71 283.22,412.17 281.99,413.00 C280.76,413.83 278.20,415.85 276.30,417.50 C274.41,419.15 271.65,420.59 270.18,420.70 C267.05,420.93 256.00,425.99 256.00,427.18 C256.00,427.63 254.02,428.00 251.61,428.00 C248.62,428.00 247.03,428.48 246.64,429.50 C246.32,430.33 245.01,431.00 243.73,431.00 C242.45,431.00 240.97,431.41 240.45,431.90 C239.51,432.80 235.13,433.48 223.50,434.55 C220.20,434.85 215.70,435.68 213.50,436.39 C209.59,437.65 195.42,437.17 190.50,435.61 C187.51,434.66 185.22,436.49 186.60,438.72 C187.37,439.95 189.51,440.69 193.60,441.13 C201.32,441.95 218.96,441.06 221.49,439.72 C222.58,439.15 225.73,438.57 228.49,438.45 C234.79,438.16 243.63,436.27 247.33,434.42 C248.89,433.64 251.20,433.00 252.46,433.00 C253.72,433.00 255.29,432.35 255.95,431.56 C256.60,430.77 258.57,429.82 260.32,429.44 C262.07,429.06 264.69,427.91 266.15,426.88 C267.61,425.84 269.75,425.00 270.90,425.00 C272.06,425.00 273.00,424.62 273.00,424.15 C273.00,423.69 274.83,422.48 277.06,421.47 C279.29,420.47 281.56,418.82 282.09,417.82 C282.63,416.82 284.96,415.04 287.28,413.87 C289.60,412.69 291.73,411.37 292.02,410.93 C292.31,410.49 293.77,409.66 295.27,409.09 C297.20,408.35 298.00,407.34 298.00,405.63 C298.00,403.91 298.70,403.04 300.41,402.61 C301.74,402.28 304.26,400.20 306.00,398.00 C307.75,395.79 309.50,394.19 309.90,394.44 C310.47,394.79 313.43,393.19 315.07,391.90 C294.51,415.36 266.50,432.19 234.00,439.56 C226.67,441.22 192.81,442.48 185.50,441.37 ZM 108.12 380.10 C107.24,379.54 106.93,378.19 107.27,376.36 C109.64,363.50 111.48,355.98 112.99,353.00 C115.08,348.86 116.99,340.39 117.02,335.20 C117.04,329.13 118.38,328.26 121.05,332.58 C124.31,337.86 124.02,343.73 120.03,353.03 C118.27,357.14 116.45,363.04 116.00,366.15 C115.14,372.04 111.70,381.01 110.31,380.98 C109.86,380.98 108.88,380.58 108.12,380.10 ZM 147.02 417.03 C144.71,415.57 144.36,402.45 146.49,397.45 C149.09,391.38 150.64,385.32 152.04,375.75 C152.75,370.94 153.63,367.00 154.01,367.00 C155.12,367.00 157.71,370.33 158.43,372.70 C159.34,375.67 157.60,384.72 153.99,395.88 C152.34,400.96 151.00,407.28 151.00,409.96 C151.00,417.36 150.09,418.97 147.02,417.03 ZM 140.57 344.78 C137.33,337.10 139.23,304.91 143.59,293.61 C144.30,291.78 144.37,291.78 145.66,293.55 C147.01,295.40 147.29,299.51 146.49,305.35 C146.32,304.99 145.60,304.81 144.14,304.53 C142.57,304.23 142.00,304.61 142.00,305.97 C142.00,307.00 142.56,308.02 143.25,308.25 C143.94,308.49 145.03,307.96 145.67,307.09 C146.01,306.62 146.26,306.26 146.40,305.98 C146.17,307.55 145.87,309.24 145.49,311.05 C144.36,316.42 144.14,321.28 144.63,330.40 C145.17,340.45 145.01,343.10 143.71,345.54 L 142.14 348.50 ZM 156.13 364.48 L 153.77 361.05 L 155.53 347.77 C156.50,340.47 157.57,326.62 157.93,317.00 C158.58,299.09 159.39,295.41 163.43,292.05 C164.83,290.90 165.00,291.46 164.96,297.13 C164.95,300.63 164.29,306.42 163.50,310.00 C161.75,317.95 161.69,319.31 163.10,318.44 C163.63,318.11 163.81,320.49 163.69,324.50 C163.62,323.79 163.42,323.01 163.08,322.19 C162.38,320.51 161.18,318.90 160.41,318.60 C159.30,318.18 159.00,319.23 159.00,323.44 C159.00,327.93 159.28,328.78 160.70,328.57 C162.35,328.33 163.36,327.35 163.64,325.91 C163.43,330.84 162.85,337.71 161.96,345.00 C161.57,348.11 161.12,352.23 160.81,355.38 C160.93,352.34 161.08,349.58 161.14,349.20 C161.19,348.81 161.18,345.91 161.12,342.75 C161.03,338.43 160.64,337.00 159.54,337.00 C157.68,337.00 156.37,342.16 155.58,352.69 C155.04,359.86 155.18,361.00 156.72,361.86 C158.74,362.99 159.87,362.32 160.42,359.38 C160.13,362.07 159.65,364.77 159.28,365.78 C158.52,367.82 158.37,367.75 156.13,364.48 ZM 285.32 301.41 C288.10,300.46 290.01,299.10 290.13,298.46 C292.29,298.17 293.59,297.68 294.04,296.98 C295.36,294.89 295.22,291.00 293.83,291.00 C293.19,291.00 292.90,290.76 293.19,290.48 C293.48,290.19 292.09,288.24 290.11,286.16 C283.67,279.39 281.00,275.61 281.00,273.28 C281.00,272.03 280.65,271.00 280.22,271.00 C279.80,271.00 279.62,269.20 279.83,267.00 C280.04,264.80 280.54,263.00 280.95,263.00 C281.35,263.00 281.41,261.31 281.07,259.25 C280.65,256.66 279.94,255.50 278.78,255.49 C278.55,255.49 278.25,255.41 277.90,255.27 C278.16,255.19 278.41,255.02 278.68,254.75 C279.54,253.89 279.70,252.51 279.16,250.49 C278.58,248.28 276.64,246.52 274.00,245.44 C276.41,246.30 278.12,247.77 279.86,250.44 L 282.50 254.50 L 282.82 250.62 C282.99,248.49 282.69,245.56 282.15,244.12 C281.61,242.68 280.88,239.48 280.54,237.00 C280.19,234.52 278.91,230.93 277.68,229.00 C273.89,223.05 273.03,221.57 272.09,219.44 C270.46,215.69 264.04,210.86 261.15,211.19 C259.69,211.36 258.50,212.13 258.50,212.89 C258.50,213.36 258.25,213.89 257.86,214.32 C257.98,213.73 256.87,212.75 254.55,211.42 C251.98,209.95 251.33,209.08 252.00,208.00 C252.76,206.77 253.58,206.88 257.47,208.78 C259.99,210.00 262.95,211.00 264.05,211.00 C266.74,211.00 273.87,218.34 277.18,224.51 C283.22,235.78 285.55,251.34 282.50,260.00 C281.67,262.34 281.00,265.56 281.00,267.16 C281.00,271.28 284.96,278.54 290.90,285.31 C297.97,293.37 297.55,297.63 289.25,301.91 C286.67,303.24 286.41,305.63 288.53,308.44 C290.51,311.06 290.38,312.00 288.02,312.00 C285.69,312.00 274.77,317.26 273.19,319.01 C272.79,318.53 273.37,318.02 274.98,317.51 C276.07,317.16 276.86,316.38 276.73,315.76 C276.60,315.15 277.85,314.16 279.50,313.57 C283.95,311.99 284.56,311.10 284.16,306.86 C283.85,303.61 283.43,303.00 281.51,303.00 C281.05,303.00 280.60,302.95 280.17,302.86 C281.17,302.83 282.58,302.34 285.32,301.41 ZM 200.85 410.37 C202.42,412.15 202.51,412.05 202.80,408.23 C203.01,405.52 202.44,403.13 201.06,400.86 C199.93,399.01 199.01,396.71 199.00,395.75 C199.00,394.79 198.00,393.00 196.78,391.78 C193.72,388.72 191.00,383.12 191.00,379.87 C191.00,378.38 190.35,375.89 189.55,374.33 C187.56,370.45 186.75,368.02 186.27,364.50 C185.81,361.12 183.45,357.00 181.98,357.00 C180.37,357.00 180.87,360.82 183.04,365.07 C184.16,367.27 184.83,369.47 184.52,369.97 C184.21,370.46 184.64,372.81 185.47,375.18 C186.29,377.56 186.98,380.29 186.99,381.25 C186.99,382.21 187.39,383.00 187.86,383.00 C188.34,383.00 189.51,385.50 190.47,388.55 C191.43,391.61 193.21,395.32 194.42,396.80 C195.63,398.29 197.20,401.52 197.91,404.00 C198.62,406.48 199.94,409.34 200.85,410.37 ZM 114.51 289.69 C112.43,284.71 112.60,281.70 115.50,271.93 C119.06,259.96 120.03,257.86 121.87,258.21 C125.12,258.84 125.62,263.69 123.13,270.33 C121.86,273.73 120.03,279.99 119.07,284.26 C118.11,288.52 117.03,292.31 116.67,292.66 C116.32,293.02 115.35,291.68 114.51,289.69 ZM 181.25 427.90 C179.35,427.19 178.40,424.57 178.82,421.31 C178.96,421.82 179.17,422.26 179.46,422.58 C180.96,424.28 183.00,423.85 183.00,421.83 C183.00,420.83 182.49,420.00 181.88,420.00 C181.06,420.00 181.06,419.63 181.89,418.63 C183.07,417.21 182.42,414.00 180.95,414.00 C179.70,414.00 178.79,416.25 178.61,418.53 C178.46,417.93 178.28,417.28 178.07,416.63 C177.52,414.91 176.60,410.12 176.03,406.00 C173.91,390.67 173.11,386.75 171.33,383.17 C170.01,380.51 169.59,377.74 169.60,371.09 C169.85,372.43 170.30,373.86 170.99,375.69 C172.14,378.77 172.99,382.01 172.87,382.89 C172.43,386.34 174.33,394.14 176.17,396.48 C177.57,398.26 177.84,399.44 177.17,400.72 C175.77,403.40 176.96,408.86 179.31,410.50 C180.45,411.30 181.51,411.82 181.68,411.65 C182.56,410.77 179.20,389.07 177.93,387.47 C176.81,386.05 175.51,377.40 175.64,372.25 C175.70,369.91 175.36,368.00 174.87,368.00 C174.39,368.00 174.00,365.79 174.00,363.09 C174.00,358.98 173.71,358.22 172.25,358.43 C170.96,358.62 170.33,360.04 169.73,364.12 C170.04,356.48 170.83,352.00 171.92,352.00 C173.47,352.00 174.85,357.45 175.48,366.00 C175.82,370.67 177.41,379.48 179.02,385.56 C180.62,391.65 182.41,401.77 183.01,408.05 C183.60,414.34 184.30,420.39 184.55,421.49 C184.81,422.60 184.68,424.68 184.26,426.12 C183.62,428.34 183.15,428.61 181.25,427.90 ZM 124.39 400.82 C124.73,399.08 125.48,393.57 126.05,388.57 C126.61,383.58 128.21,375.90 129.61,371.50 C131.00,367.10 132.58,359.45 133.11,354.50 C134.39,342.58 134.67,341.93 136.88,345.56 C137.87,347.18 139.42,349.12 140.34,349.87 C141.25,350.63 142.00,352.36 142.00,353.73 L 142.00 356.22 L 137.85 351.50 L 138.52 354.00 C139.05,356.00 139.40,357.55 139.52,359.05 C137.62,353.18 130.80,363.73 131.92,370.85 C132.04,371.59 131.48,372.94 130.69,373.85 C129.89,374.76 129.01,376.85 128.72,378.50 C128.43,380.15 127.68,384.36 127.06,387.85 C126.20,392.65 126.21,394.55 127.08,395.60 C128.88,397.77 129.78,397.29 130.55,393.75 C130.93,391.96 131.76,390.17 132.38,389.77 C132.62,389.61 132.78,389.48 132.87,389.37 C132.14,396.56 128.43,404.00 125.22,404.00 C124.10,404.00 123.90,403.24 124.39,400.82 ZM 204.69 298.32 C204.08,298.63 203.31,299.24 202.37,300.12 L 200.12 302.24 L 195.64 300.07 C186.81,295.79 178.00,283.16 178.00,274.78 C178.00,265.59 182.26,258.60 188.59,257.42 C192.98,256.59 195.27,257.48 200.49,261.99 C202.92,264.10 206.31,266.13 208.02,266.50 C209.92,266.92 211.55,268.12 212.22,269.59 C212.74,270.72 213.37,271.67 213.74,271.92 C213.44,271.97 213.13,272.00 212.82,272.00 C212.09,271.99 209.79,270.42 207.69,268.50 C205.60,266.57 202.83,265.00 201.53,265.00 C199.15,265.00 198.99,265.63 200.36,269.70 C200.37,269.73 200.38,269.76 200.39,269.78 C200.15,269.25 199.81,268.63 199.34,267.84 C195.79,261.73 188.71,260.41 185.59,265.27 C184.80,266.49 183.88,269.30 183.55,271.50 L 183.30 273.22 C183.27,272.37 183.30,271.04 183.34,269.11 L 183.50 262.73 L 186.93 262.35 C192.23,261.77 192.56,260.77 187.83,259.64 C185.55,259.10 184.68,259.61 181.83,263.22 C178.79,267.05 178.52,267.96 178.73,273.46 C178.86,276.78 179.43,279.64 179.99,279.83 C180.55,280.02 180.80,280.51 180.54,280.93 C179.76,282.20 186.68,292.12 190.61,295.35 C193.88,298.05 195.02,298.39 200.65,298.35 L 204.69 298.32 ZM 122.41 314.49 C123.25,317.84 125.81,317.69 126.58,314.25 C126.92,312.74 127.53,310.15 127.94,308.50 C128.87,304.74 128.31,303.00 126.17,303.00 C125.38,303.00 124.86,303.45 124.56,304.42 C125.46,298.42 129.84,280.62 130.92,278.61 C130.52,279.41 129.92,282.59 129.56,285.95 C129.17,289.50 128.41,293.24 127.86,294.26 C127.16,295.56 127.22,296.57 128.05,297.56 C128.71,298.35 129.07,298.82 129.44,298.82 C129.96,298.83 130.49,297.93 131.84,295.75 C132.75,294.26 133.74,291.35 134.58,287.96 C134.54,288.18 134.49,288.40 134.45,288.62 C133.64,292.53 131.83,299.51 130.43,304.12 C129.03,308.73 127.47,316.37 126.97,321.11 C125.63,333.63 124.40,335.80 121.99,329.98 C120.52,326.43 121.10,312.79 122.81,310.73 C123.31,310.13 123.89,308.35 124.26,306.42 C124.09,308.06 123.51,309.88 122.92,310.60 C122.29,311.35 122.06,313.10 122.41,314.49 ZM 163.95 424.35 C161.54,423.70 159.36,402.84 160.99,396.04 C162.28,390.67 163.64,389.57 164.46,393.25 C166.32,401.65 167.65,425.10 166.25,424.88 C165.84,424.82 164.80,424.58 163.95,424.35 ZM 96.46 347.94 C96.10,347.35 96.08,345.21 96.42,343.19 C97.03,339.50 100.79,326.76 102.66,321.76 C101.48,325.23 100.46,329.88 100.78,330.84 C101.40,332.71 103.81,332.17 104.50,330.00 C104.85,328.90 105.44,328.00 105.82,327.99 C106.19,327.99 106.60,326.08 106.73,323.74 C106.98,319.09 111.28,304.06 113.57,299.84 C114.36,298.37 114.62,297.01 114.42,295.97 L 114.86 297.15 L 111.92 308.33 C110.29,314.47 107.41,325.51 105.51,332.86 C103.62,340.21 101.54,346.85 100.91,347.61 C99.54,349.26 97.38,349.42 96.46,347.94 ZM 256.46 200.96 C254.86,199.29 251.38,196.53 248.72,194.82 C244.33,192.01 239.00,184.67 240.36,183.31 C240.63,183.04 243.92,184.44 247.68,186.42 C252.67,189.06 255.51,191.40 258.25,195.14 C264.04,203.03 262.68,207.45 256.46,200.96 ZM 115.00 228.62 C115.00,227.17 118.35,220.74 120.34,218.37 C120.75,217.89 121.13,217.40 121.47,216.95 C121.21,217.61 120.90,218.40 120.57,219.18 C119.82,220.95 119.44,222.98 119.71,223.70 C120.30,225.23 121.95,225.44 122.12,224.00 C122.19,223.45 122.31,222.63 122.38,222.17 C122.44,221.72 124.73,218.76 127.45,215.61 C134.31,207.67 135.39,205.99 134.32,204.93 C133.22,203.82 129.00,206.57 129.00,208.40 C129.00,209.10 127.48,210.76 125.61,212.09 C124.55,212.85 123.58,213.63 122.92,214.24 C123.86,211.42 130.69,203.64 133.58,202.26 C136.53,200.85 136.82,200.46 135.31,199.90 C133.77,199.32 133.94,199.05 136.42,198.07 C138.03,197.44 140.62,197.20 142.17,197.54 L 144.99 198.16 L 138.54 204.83 C135.00,208.50 129.87,214.68 127.15,218.57 C122.52,225.18 118.45,229.00 116.04,229.00 C115.47,229.00 115.00,228.83 115.00,228.62 ZM 233.61 215.51 C234.65,216.29 237.29,216.95 239.47,216.97 L 243.43 217.00 L 240.65 214.75 C236.52,211.41 231.99,210.08 229.14,211.36 C227.20,212.23 226.53,212.08 225.37,210.49 C224.28,209.00 222.61,208.51 218.10,208.39 C210.58,208.18 208.74,209.18 211.67,211.90 C214.19,214.25 222.08,215.01 224.36,213.12 C225.60,212.09 226.06,212.24 226.97,213.95 C227.84,215.57 228.48,215.81 229.90,215.05 C231.19,214.36 232.27,214.49 233.61,215.51 ZM 184.55 213.06 C179.47,214.44 174.22,217.19 168.19,221.55 C161.31,226.52 158.89,229.08 153.49,237.10 C143.92,251.28 140.81,258.85 135.68,282.76 C136.09,280.45 136.39,278.12 136.54,276.00 C136.97,269.84 138.80,261.59 140.42,258.50 C141.28,256.85 141.99,254.67 141.99,253.66 C142.00,252.65 143.46,250.28 145.25,248.38 C147.04,246.49 148.56,244.50 148.62,243.97 C148.69,243.44 148.81,242.60 148.88,242.11 C148.94,241.62 150.46,239.03 152.25,236.35 C154.04,233.67 155.64,230.80 155.80,229.99 C156.19,228.10 158.91,226.00 160.97,226.00 C161.85,226.00 163.07,224.65 163.69,223.00 C164.45,220.99 165.51,220.00 166.91,220.00 C168.06,220.00 169.00,219.65 169.00,219.22 C169.00,217.77 175.39,214.64 180.46,213.61 C181.44,213.41 182.87,213.22 184.55,213.06 ZM 178.38 347.40 C179.04,349.27 179.08,349.27 180.50,347.40 C182.38,344.92 182.35,343.47 180.38,340.45 C179.09,338.49 178.84,336.19 179.20,329.49 C179.44,324.82 179.27,321.00 178.82,321.00 C178.37,321.00 177.96,320.21 177.92,319.25 C177.74,315.52 175.14,323.81 174.50,330.15 C173.95,335.50 174.19,337.54 175.77,341.11 C176.83,343.53 178.01,346.36 178.38,347.40 ZM 219.43 404.04 C212.46,398.75 205.28,390.55 204.49,386.96 C204.13,385.32 201.34,378.47 198.29,371.74 C196.15,367.01 194.16,362.12 192.47,357.51 C196.93,369.20 204.34,385.48 206.38,387.53 C207.27,388.42 208.00,390.00 208.00,391.05 C208.00,392.26 208.93,393.19 210.50,393.59 C211.88,393.93 213.00,394.81 213.00,395.54 C213.00,396.26 213.73,397.59 214.62,398.48 C216.11,399.97 216.38,399.96 218.09,398.42 C220.06,396.64 219.55,394.57 216.20,390.73 C215.01,389.37 214.92,388.68 215.82,387.78 C217.22,386.38 217.41,380.31 216.07,379.83 C214.09,379.12 213.82,374.32 215.66,372.49 C216.61,371.53 218.71,366.90 220.38,362.07 C218.47,368.18 217.63,372.75 217.30,378.50 C216.68,389.09 217.65,393.37 222.48,401.39 C224.41,404.61 226.00,407.41 226.00,407.62 C226.00,408.61 224.08,407.57 219.43,404.04 ZM 230.13 186.63 C224.74,184.76 223.46,183.84 221.85,180.71 C219.74,176.59 219.82,176.55 226.91,178.07 C232.62,179.30 236.37,181.88 238.55,186.09 C239.94,188.78 239.92,188.99 238.28,188.92 C237.30,188.88 233.63,187.85 230.13,186.63 ZM 141.11 164.96 C141.98,164.55 142.92,164.09 143.86,163.61 C150.38,160.27 156.08,158.38 173.00,153.93 C179.92,152.10 185.02,151.61 200.50,151.25 C212.67,150.97 221.48,151.22 225.00,151.96 C228.02,152.59 232.30,153.49 234.50,153.95 C259.09,159.13 286.34,172.83 304.15,188.96 C308.85,193.22 313.62,198.43 319.31,205.59 C314.58,199.70 311.93,197.27 309.89,196.72 C308.30,196.29 307.00,195.53 307.00,195.03 C307.00,193.50 293.71,181.13 290.75,179.90 C289.24,179.27 288.00,178.34 288.00,177.82 C288.00,177.30 287.58,177.14 287.07,177.46 C286.55,177.78 284.64,176.53 282.82,174.68 C275.89,167.68 251.79,157.42 234.00,153.90 C224.14,151.95 202.61,151.22 186.35,152.27 C173.85,153.08 153.38,158.62 149.85,162.15 C148.86,163.14 147.45,163.73 146.72,163.44 C146.04,163.18 143.67,163.91 141.11,164.96 ZM 162.00 270.94 C162.00,270.35 163.18,267.39 164.61,264.36 C167.45,258.35 171.63,255.01 176.31,255.00 L 179.12 255.00 L 175.83 259.59 C172.18,264.66 164.61,272.00 163.02,272.00 C162.46,272.00 162.00,271.52 162.00,270.94 ZM 194.47 226.96 C193.64,225.60 195.63,223.24 199.13,221.43 C203.33,219.26 221.07,220.02 217.43,222.22 C216.38,222.86 197.28,228.00 195.97,228.00 C195.50,228.00 194.83,227.53 194.47,226.96 ZM 90.36 305.75 C92.25,292.90 94.19,284.63 96.54,279.38 C97.98,276.15 100.07,270.58 101.17,267.00 C102.27,263.42 104.40,258.25 105.90,255.50 C107.08,253.32 108.14,250.76 108.56,249.10 C108.58,249.20 108.61,249.28 108.67,249.34 C109.00,249.67 108.53,251.06 107.64,252.43 C106.74,253.81 106.00,256.20 106.00,257.74 C106.00,259.29 105.29,261.56 104.43,262.80 C103.57,264.03 102.78,267.01 102.68,269.42 C102.58,271.83 102.22,273.63 101.87,273.42 C101.52,273.20 100.24,275.38 99.02,278.26 C97.80,281.14 96.07,284.62 95.17,286.00 C93.50,288.55 89.93,304.60 90.84,305.50 C91.11,305.78 92.11,306.00 93.06,306.00 C94.79,306.00 95.24,304.53 96.63,294.50 C96.93,292.30 97.70,290.05 98.34,289.50 C99.02,288.92 100.18,286.78 101.39,284.05 C100.33,286.84 98.90,291.65 97.97,295.65 C95.66,305.52 93.59,310.00 91.34,310.00 C90.01,310.00 89.84,309.25 90.36,305.75 ZM 144.19 194.95 C141.16,193.73 141.96,192.63 149.28,187.90 C153.66,185.07 156.43,183.98 159.41,183.92 C161.66,183.88 162.93,183.61 162.24,183.34 C160.16,182.50 161.92,181.00 164.99,181.00 C168.48,181.00 173.00,182.61 173.00,183.86 C173.00,184.27 171.51,185.00 169.50,185.61 C169.47,185.36 169.12,184.98 168.51,184.37 C167.18,183.04 166.41,182.95 164.39,183.87 C163.02,184.49 160.60,185.00 159.01,185.00 C157.42,185.00 155.84,185.45 155.50,186.00 C155.16,186.55 154.19,187.00 153.34,187.00 C151.14,187.00 145.71,191.73 147.27,192.29 C149.16,192.97 152.10,192.22 153.89,190.61 C156.02,188.69 163.78,186.03 167.32,186.01 C167.58,186.01 167.82,186.01 168.03,186.01 C165.32,186.74 1" fill="rgba(158,111,52,1)"/>
  </g>
</svg>